<mxfile host="app.diagrams.net" agent="Mozilla/5.0 (Windows NT 10.0; Win64; x64) AppleWebKit/537.36 (KHTML, like Gecko) Chrome/136.0.0.0 Safari/537.36" version="26.0.16">
  <diagram id="C5RBs43oDa-KdzZeNtuy" name="Page-1">
    <mxGraphModel dx="2466" dy="2123" grid="1" gridSize="10" guides="1" tooltips="1" connect="1" arrows="1" fold="1" page="1" pageScale="1" pageWidth="827" pageHeight="1169" math="0" shadow="0">
      <root>
        <mxCell id="WIyWlLk6GJQsqaUBKTNV-0" />
        <mxCell id="WIyWlLk6GJQsqaUBKTNV-1" parent="WIyWlLk6GJQsqaUBKTNV-0" />
        <mxCell id="cZ-cLYDdpeBu6bpKkWIv-31" value="" style="rounded=1;whiteSpace=wrap;html=1;strokeWidth=2;fillWeight=4;hachureGap=8;hachureAngle=45;fillColor=#d5e8d4;sketch=1;opacity=30;strokeColor=#82b366;" vertex="1" parent="WIyWlLk6GJQsqaUBKTNV-1">
          <mxGeometry x="-180" y="540" width="830" height="170" as="geometry" />
        </mxCell>
        <mxCell id="cZ-cLYDdpeBu6bpKkWIv-19" value="" style="rounded=1;whiteSpace=wrap;html=1;strokeWidth=2;fillWeight=4;hachureGap=8;hachureAngle=45;fillColor=#1ba1e2;sketch=1;opacity=20;" vertex="1" parent="WIyWlLk6GJQsqaUBKTNV-1">
          <mxGeometry x="-177" y="240" width="830" height="270" as="geometry" />
        </mxCell>
        <mxCell id="cZ-cLYDdpeBu6bpKkWIv-26" value="" style="edgeStyle=orthogonalEdgeStyle;rounded=0;orthogonalLoop=1;jettySize=auto;html=1;" edge="1" parent="WIyWlLk6GJQsqaUBKTNV-1" source="WIyWlLk6GJQsqaUBKTNV-3" target="cZ-cLYDdpeBu6bpKkWIv-2">
          <mxGeometry relative="1" as="geometry" />
        </mxCell>
        <mxCell id="WIyWlLk6GJQsqaUBKTNV-3" value="&#xa;&lt;div style=&quot;color: #f8f8f2;background-color: #272822;font-family: Consolas, &#39;Courier New&#39;, monospace;font-weight: normal;font-size: 16px;line-height: 22px;white-space: pre;&quot;&gt;&lt;div&gt;&lt;span style=&quot;color: #f8f8f2;&quot;&gt;A[User clicks “Send” in Postman]&lt;/span&gt;&lt;/div&gt;&lt;/div&gt;&#xa;&#xa;" style="rounded=1;whiteSpace=wrap;html=1;fontSize=12;glass=0;strokeWidth=1;shadow=0;" parent="WIyWlLk6GJQsqaUBKTNV-1" vertex="1">
          <mxGeometry x="87.5" y="63" width="305" height="60" as="geometry" />
        </mxCell>
        <mxCell id="cZ-cLYDdpeBu6bpKkWIv-4" value="" style="edgeStyle=orthogonalEdgeStyle;rounded=0;orthogonalLoop=1;jettySize=auto;html=1;exitX=0.5;exitY=1;exitDx=0;exitDy=0;entryX=0;entryY=0.5;entryDx=0;entryDy=0;" edge="1" parent="WIyWlLk6GJQsqaUBKTNV-1" source="cZ-cLYDdpeBu6bpKkWIv-2" target="cZ-cLYDdpeBu6bpKkWIv-3">
          <mxGeometry relative="1" as="geometry">
            <mxPoint x="-30" y="240" as="sourcePoint" />
            <Array as="points">
              <mxPoint x="240" y="229" />
              <mxPoint x="240" y="270" />
            </Array>
          </mxGeometry>
        </mxCell>
        <mxCell id="cZ-cLYDdpeBu6bpKkWIv-8" value="" style="edgeStyle=orthogonalEdgeStyle;rounded=0;orthogonalLoop=1;jettySize=auto;html=1;" edge="1" parent="WIyWlLk6GJQsqaUBKTNV-1" target="cZ-cLYDdpeBu6bpKkWIv-7">
          <mxGeometry relative="1" as="geometry">
            <mxPoint x="240" y="270" as="sourcePoint" />
            <Array as="points">
              <mxPoint x="220" y="270" />
            </Array>
          </mxGeometry>
        </mxCell>
        <mxCell id="cZ-cLYDdpeBu6bpKkWIv-2" value="&#xa;&lt;div style=&quot;color: #f8f8f2;background-color: #272822;font-family: Consolas, &#39;Courier New&#39;, monospace;font-weight: normal;font-size: 16px;line-height: 22px;white-space: pre;&quot;&gt;&lt;div&gt;&lt;span style=&quot;color: #f8f8f2;&quot;&gt;B[Postman sends HTTP request]&lt;/span&gt;&lt;/div&gt;&lt;/div&gt;&#xa;&#xa;" style="rounded=1;whiteSpace=wrap;html=1;fontSize=12;glass=0;strokeWidth=1;shadow=0;" vertex="1" parent="WIyWlLk6GJQsqaUBKTNV-1">
          <mxGeometry x="105" y="160" width="270" height="60" as="geometry" />
        </mxCell>
        <mxCell id="cZ-cLYDdpeBu6bpKkWIv-10" value="" style="edgeStyle=orthogonalEdgeStyle;rounded=0;orthogonalLoop=1;jettySize=auto;html=1;" edge="1" parent="WIyWlLk6GJQsqaUBKTNV-1" source="cZ-cLYDdpeBu6bpKkWIv-3" target="cZ-cLYDdpeBu6bpKkWIv-9">
          <mxGeometry relative="1" as="geometry" />
        </mxCell>
        <UserObject label="&#xa;&lt;div style=&quot;color: #f8f8f2;background-color: #272822;font-family: Consolas, &#39;Courier New&#39;, monospace;font-weight: normal;font-size: 16px;line-height: 22px;white-space: pre;&quot;&gt;&lt;div&gt;&lt;span style=&quot;color: #f8f8f2;&quot;&gt;&amp;nbsp;C[Response arrives: pm.response.json()]&lt;/span&gt;&lt;/div&gt;&lt;/div&gt;&#xa;&#xa;" link="&#xa;&lt;div style=&quot;color: #f8f8f2;background-color: #272822;font-family: Consolas, &#39;Courier New&#39;, monospace;font-weight: normal;font-size: 16px;line-height: 22px;white-space: pre;&quot;&gt;&lt;div&gt;&lt;span style=&quot;color: #f8f8f2;&quot;&gt;&amp;nbsp;C[Response arrives: pm.response.json()]&lt;/span&gt;&lt;/div&gt;&lt;/div&gt;&#xa;&#xa;" id="cZ-cLYDdpeBu6bpKkWIv-3">
          <mxCell style="whiteSpace=wrap;html=1;rounded=1;glass=0;strokeWidth=1;shadow=0;" vertex="1" parent="WIyWlLk6GJQsqaUBKTNV-1">
            <mxGeometry x="261" y="240" width="360" height="60" as="geometry" />
          </mxCell>
        </UserObject>
        <mxCell id="cZ-cLYDdpeBu6bpKkWIv-14" value="" style="edgeStyle=orthogonalEdgeStyle;rounded=0;orthogonalLoop=1;jettySize=auto;html=1;" edge="1" parent="WIyWlLk6GJQsqaUBKTNV-1" source="cZ-cLYDdpeBu6bpKkWIv-7" target="cZ-cLYDdpeBu6bpKkWIv-13">
          <mxGeometry relative="1" as="geometry" />
        </mxCell>
        <UserObject label="&#xa;&lt;div style=&quot;color: #f8f8f2;background-color: #272822;font-family: Consolas, &#39;Courier New&#39;, monospace;font-weight: normal;font-size: 16px;line-height: 22px;white-space: pre;&quot;&gt;&lt;div&gt;&lt;span style=&quot;color: #f8f8f2;&quot;&gt;D[&lt;/span&gt;&lt;span style=&quot;color: #ae81ff;&quot;&gt;pm.request.body.raw&lt;/span&gt;&lt;span style=&quot;color: #f8f8f2;&quot;&gt;]&lt;/span&gt;&lt;/div&gt;&lt;/div&gt;&#xa;&#xa;" link="&#xa;&lt;div style=&quot;color: #f8f8f2;background-color: #272822;font-family: Consolas, &#39;Courier New&#39;, monospace;font-weight: normal;font-size: 16px;line-height: 22px;white-space: pre;&quot;&gt;&lt;div&gt;&lt;span style=&quot;color: #f8f8f2;&quot;&gt;D[&lt;/span&gt;&lt;span style=&quot;color: #ae81ff;&quot;&gt;pm.request.body.raw&lt;/span&gt;&lt;span style=&quot;color: #f8f8f2;&quot;&gt;]&lt;/span&gt;&lt;/div&gt;&lt;/div&gt;&#xa;&#xa;" id="cZ-cLYDdpeBu6bpKkWIv-7">
          <mxCell style="whiteSpace=wrap;html=1;rounded=1;glass=0;strokeWidth=1;shadow=0;" vertex="1" parent="WIyWlLk6GJQsqaUBKTNV-1">
            <mxGeometry x="8" y="240" width="210" height="60" as="geometry" />
          </mxCell>
        </UserObject>
        <mxCell id="cZ-cLYDdpeBu6bpKkWIv-12" value="" style="edgeStyle=orthogonalEdgeStyle;rounded=0;orthogonalLoop=1;jettySize=auto;html=1;" edge="1" parent="WIyWlLk6GJQsqaUBKTNV-1" source="cZ-cLYDdpeBu6bpKkWIv-9" target="cZ-cLYDdpeBu6bpKkWIv-11">
          <mxGeometry relative="1" as="geometry" />
        </mxCell>
        <mxCell id="cZ-cLYDdpeBu6bpKkWIv-9" value="&#xa;&lt;div style=&quot;color: #f8f8f2;background-color: #272822;font-family: Consolas, &#39;Courier New&#39;, monospace;font-weight: normal;font-size: 16px;line-height: 22px;white-space: pre;&quot;&gt;&lt;div&gt;&lt;span style=&quot;color: #f8f8f2;&quot;&gt;E[Parse response JSON]&lt;/span&gt;&lt;/div&gt;&lt;/div&gt;&#xa;&#xa;" style="whiteSpace=wrap;html=1;rounded=1;glass=0;strokeWidth=1;shadow=0;" vertex="1" parent="WIyWlLk6GJQsqaUBKTNV-1">
          <mxGeometry x="326" y="350" width="230" height="50" as="geometry" />
        </mxCell>
        <mxCell id="cZ-cLYDdpeBu6bpKkWIv-28" value="" style="edgeStyle=orthogonalEdgeStyle;rounded=0;orthogonalLoop=1;jettySize=auto;html=1;" edge="1" parent="WIyWlLk6GJQsqaUBKTNV-1" source="cZ-cLYDdpeBu6bpKkWIv-11" target="cZ-cLYDdpeBu6bpKkWIv-24">
          <mxGeometry relative="1" as="geometry" />
        </mxCell>
        <mxCell id="cZ-cLYDdpeBu6bpKkWIv-11" value="&#xa;&lt;div style=&quot;color: #f8f8f2;background-color: #272822;font-family: Consolas, &#39;Courier New&#39;, monospace;font-weight: normal;font-size: 16px;line-height: 22px;white-space: pre;&quot;&gt;&lt;div&gt;&lt;span style=&quot;color: #f8f8f2;&quot;&gt;H[Extract response.choices + usage]&lt;/span&gt;&lt;/div&gt;&lt;/div&gt;&#xa;&#xa;" style="whiteSpace=wrap;html=1;rounded=1;glass=0;strokeWidth=1;shadow=0;" vertex="1" parent="WIyWlLk6GJQsqaUBKTNV-1">
          <mxGeometry x="271" y="440" width="340" height="60" as="geometry" />
        </mxCell>
        <mxCell id="cZ-cLYDdpeBu6bpKkWIv-16" value="" style="edgeStyle=orthogonalEdgeStyle;rounded=0;orthogonalLoop=1;jettySize=auto;html=1;" edge="1" parent="WIyWlLk6GJQsqaUBKTNV-1" source="cZ-cLYDdpeBu6bpKkWIv-13" target="cZ-cLYDdpeBu6bpKkWIv-15">
          <mxGeometry relative="1" as="geometry" />
        </mxCell>
        <mxCell id="cZ-cLYDdpeBu6bpKkWIv-13" value="&lt;div style=&quot;color: rgb(248, 248, 242); background-color: rgb(39, 40, 34); font-family: Consolas, &amp;quot;Courier New&amp;quot;, monospace; font-size: 16px; line-height: 22px; white-space: pre;&quot;&gt;F[Parse request JSON]&lt;/div&gt;" style="whiteSpace=wrap;html=1;rounded=1;glass=0;strokeWidth=1;shadow=0;" vertex="1" parent="WIyWlLk6GJQsqaUBKTNV-1">
          <mxGeometry x="0.5" y="350" width="225" height="60" as="geometry" />
        </mxCell>
        <mxCell id="cZ-cLYDdpeBu6bpKkWIv-27" value="" style="edgeStyle=orthogonalEdgeStyle;rounded=0;orthogonalLoop=1;jettySize=auto;html=1;" edge="1" parent="WIyWlLk6GJQsqaUBKTNV-1" source="cZ-cLYDdpeBu6bpKkWIv-15" target="cZ-cLYDdpeBu6bpKkWIv-24">
          <mxGeometry relative="1" as="geometry" />
        </mxCell>
        <mxCell id="cZ-cLYDdpeBu6bpKkWIv-15" value="&#xa;&lt;div style=&quot;color: #f8f8f2;background-color: #272822;font-family: Consolas, &#39;Courier New&#39;, monospace;font-weight: normal;font-size: 16px;line-height: 22px;white-space: pre;&quot;&gt;&lt;div&gt;&lt;span style=&quot;color: #f8f8f2;&quot;&gt;G[Extract userMessage]&lt;/span&gt;&lt;/div&gt;&lt;/div&gt;&#xa;&#xa;" style="whiteSpace=wrap;html=1;rounded=1;glass=0;strokeWidth=1;shadow=0;" vertex="1" parent="WIyWlLk6GJQsqaUBKTNV-1">
          <mxGeometry x="5.5" y="440" width="215" height="60" as="geometry" />
        </mxCell>
        <mxCell id="cZ-cLYDdpeBu6bpKkWIv-22" value="&lt;h1 style=&quot;margin-top: 0px;&quot;&gt;What is Postman?&lt;/h1&gt;&lt;p&gt;&lt;/p&gt;&lt;ul&gt;&lt;li&gt;&lt;span style=&quot;margin: 0px; padding: 0px; border: 0px; font-variant-numeric: inherit; font-variant-east-asian: inherit; font-variant-alternates: inherit; font-variant-position: inherit; font-variant-emoji: inherit; font-weight: 700; font-stretch: inherit; line-height: inherit; font-family: DDG_ProximaNova, DDG_ProximaNova_UI_0, DDG_ProximaNova_UI_1, DDG_ProximaNova_UI_2, DDG_ProximaNova_UI_3, DDG_ProximaNova_UI_4, DDG_ProximaNova_UI_5, DDG_ProximaNova_UI_6, &amp;quot;Proxima Nova&amp;quot;, -apple-system, BlinkMacSystemFont, &amp;quot;Segoe UI&amp;quot;, Roboto, Oxygen-Sans, Ubuntu, Cantarell, &amp;quot;Helvetica Neue&amp;quot;, Arial, &amp;quot;Noto Sans&amp;quot;, sans-serif; font-optical-sizing: inherit; font-size-adjust: inherit; font-kerning: inherit; font-feature-settings: inherit; font-variation-settings: inherit; font-size: 14.4px; vertical-align: baseline; color: rgb(204, 204, 204); background-color: rgb(28, 28, 28);&quot;&gt;Postman&lt;/span&gt;&lt;span style=&quot;color: rgb(204, 204, 204); font-family: DDG_ProximaNova, DDG_ProximaNova_UI_0, DDG_ProximaNova_UI_1, DDG_ProximaNova_UI_2, DDG_ProximaNova_UI_3, DDG_ProximaNova_UI_4, DDG_ProximaNova_UI_5, DDG_ProximaNova_UI_6, &amp;quot;Proxima Nova&amp;quot;, -apple-system, BlinkMacSystemFont, &amp;quot;Segoe UI&amp;quot;, Roboto, Oxygen-Sans, Ubuntu, Cantarell, &amp;quot;Helvetica Neue&amp;quot;, Arial, &amp;quot;Noto Sans&amp;quot;, sans-serif; font-size: 14.4px; background-color: rgb(28, 28, 28);&quot;&gt;&amp;nbsp;&lt;/span&gt;&lt;span style=&quot;margin: 0px; padding: 0px; border: 0px; font-variant-numeric: inherit; font-variant-east-asian: inherit; font-variant-alternates: inherit; font-variant-position: inherit; font-variant-emoji: inherit; font-weight: 700; font-stretch: inherit; line-height: inherit; font-family: DDG_ProximaNova, DDG_ProximaNova_UI_0, DDG_ProximaNova_UI_1, DDG_ProximaNova_UI_2, DDG_ProximaNova_UI_3, DDG_ProximaNova_UI_4, DDG_ProximaNova_UI_5, DDG_ProximaNova_UI_6, &amp;quot;Proxima Nova&amp;quot;, -apple-system, BlinkMacSystemFont, &amp;quot;Segoe UI&amp;quot;, Roboto, Oxygen-Sans, Ubuntu, Cantarell, &amp;quot;Helvetica Neue&amp;quot;, Arial, &amp;quot;Noto Sans&amp;quot;, sans-serif; font-optical-sizing: inherit; font-size-adjust: inherit; font-kerning: inherit; font-feature-settings: inherit; font-variation-settings: inherit; font-size: 14.4px; vertical-align: baseline; color: rgb(204, 204, 204); background-color: rgb(28, 28, 28);&quot;&gt;is&lt;/span&gt;&lt;span style=&quot;color: rgb(204, 204, 204); font-family: DDG_ProximaNova, DDG_ProximaNova_UI_0, DDG_ProximaNova_UI_1, DDG_ProximaNova_UI_2, DDG_ProximaNova_UI_3, DDG_ProximaNova_UI_4, DDG_ProximaNova_UI_5, DDG_ProximaNova_UI_6, &amp;quot;Proxima Nova&amp;quot;, -apple-system, BlinkMacSystemFont, &amp;quot;Segoe UI&amp;quot;, Roboto, Oxygen-Sans, Ubuntu, Cantarell, &amp;quot;Helvetica Neue&amp;quot;, Arial, &amp;quot;Noto Sans&amp;quot;, sans-serif; font-size: 14.4px; background-color: rgb(28, 28, 28);&quot;&gt;&amp;nbsp;an all-in-one API platform for building and working with APIs.&lt;/span&gt;&lt;/li&gt;&lt;li&gt;&lt;span style=&quot;color: rgb(204, 204, 204); font-family: DDG_ProximaNova, DDG_ProximaNova_UI_0, DDG_ProximaNova_UI_1, DDG_ProximaNova_UI_2, DDG_ProximaNova_UI_3, DDG_ProximaNova_UI_4, DDG_ProximaNova_UI_5, DDG_ProximaNova_UI_6, &amp;quot;Proxima Nova&amp;quot;, -apple-system, BlinkMacSystemFont, &amp;quot;Segoe UI&amp;quot;, Roboto, Oxygen-Sans, Ubuntu, Cantarell, &amp;quot;Helvetica Neue&amp;quot;, Arial, &amp;quot;Noto Sans&amp;quot;, sans-serif; font-size: 14.4px; background-color: rgb(28, 28, 28);&quot;&gt;&lt;span style=&quot;font-size: 14.4px;&quot;&gt;It takes the pain out of every stage of the API lifecycle—from designing and testing to delivery and monitoring.&lt;/span&gt;&lt;/span&gt;&lt;/li&gt;&lt;/ul&gt;&lt;p&gt;&lt;/p&gt;&lt;p&gt;&lt;span style=&quot;color: rgb(204, 204, 204); font-family: DDG_ProximaNova, DDG_ProximaNova_UI_0, DDG_ProximaNova_UI_1, DDG_ProximaNova_UI_2, DDG_ProximaNova_UI_3, DDG_ProximaNova_UI_4, DDG_ProximaNova_UI_5, DDG_ProximaNova_UI_6, &amp;quot;Proxima Nova&amp;quot;, -apple-system, BlinkMacSystemFont, &amp;quot;Segoe UI&amp;quot;, Roboto, Oxygen-Sans, Ubuntu, Cantarell, &amp;quot;Helvetica Neue&amp;quot;, Arial, &amp;quot;Noto Sans&amp;quot;, sans-serif; font-size: 14.4px; background-color: rgb(28, 28, 28);&quot;&gt;&lt;br&gt;&lt;/span&gt;&lt;/p&gt;&lt;p&gt;&lt;span style=&quot;color: rgb(204, 204, 204); font-family: DDG_ProximaNova, DDG_ProximaNova_UI_0, DDG_ProximaNova_UI_1, DDG_ProximaNova_UI_2, DDG_ProximaNova_UI_3, DDG_ProximaNova_UI_4, DDG_ProximaNova_UI_5, DDG_ProximaNova_UI_6, &amp;quot;Proxima Nova&amp;quot;, -apple-system, BlinkMacSystemFont, &amp;quot;Segoe UI&amp;quot;, Roboto, Oxygen-Sans, Ubuntu, Cantarell, &amp;quot;Helvetica Neue&amp;quot;, Arial, &amp;quot;Noto Sans&amp;quot;, sans-serif; font-size: 14.4px; background-color: rgb(28, 28, 28);&quot;&gt;&lt;br&gt;&lt;/span&gt;&lt;/p&gt;" style="text;html=1;whiteSpace=wrap;overflow=hidden;rounded=0;" vertex="1" parent="WIyWlLk6GJQsqaUBKTNV-1">
          <mxGeometry x="-250" y="63" width="320" height="160" as="geometry" />
        </mxCell>
        <mxCell id="cZ-cLYDdpeBu6bpKkWIv-23" value="&lt;div style=&quot;color: rgb(248, 248, 242); background-color: rgb(39, 40, 34); font-family: Consolas, &amp;quot;Courier New&amp;quot;, monospace; font-size: 16px; line-height: 22px; white-space: pre;&quot;&gt;Payload Builder&lt;/div&gt;" style="text;html=1;align=center;verticalAlign=middle;whiteSpace=wrap;rounded=0;" vertex="1" parent="WIyWlLk6GJQsqaUBKTNV-1">
          <mxGeometry x="-180" y="260" width="140" height="30" as="geometry" />
        </mxCell>
        <mxCell id="cZ-cLYDdpeBu6bpKkWIv-30" value="" style="edgeStyle=orthogonalEdgeStyle;rounded=0;orthogonalLoop=1;jettySize=auto;html=1;" edge="1" parent="WIyWlLk6GJQsqaUBKTNV-1" source="cZ-cLYDdpeBu6bpKkWIv-24" target="cZ-cLYDdpeBu6bpKkWIv-29">
          <mxGeometry relative="1" as="geometry" />
        </mxCell>
        <mxCell id="cZ-cLYDdpeBu6bpKkWIv-24" value="&#xa;&lt;div style=&quot;color: #f8f8f2;background-color: #272822;font-family: Consolas, &#39;Courier New&#39;, monospace;font-weight: normal;font-size: 16px;line-height: 22px;white-space: pre;&quot;&gt;&lt;div&gt;&lt;span style=&quot;color: #f8f8f2;&quot;&gt;I[Handlebars template &lt;/span&gt;&lt;span style=&quot;color: #f8f8f2;&quot;&gt;&amp;lt;&lt;/span&gt;&lt;span style=&quot;color: #f92672;&quot;&gt;style&lt;/span&gt;&lt;span style=&quot;color: #f8f8f2;&quot;&gt;&amp;gt;&lt;/span&gt;&lt;span style=&quot;color: #f8f8f2;&quot;&gt; &lt;/span&gt;&lt;span style=&quot;color: #f92672;&quot;&gt;+&lt;/span&gt;&lt;span style=&quot;color: #f8f8f2;&quot;&gt; &amp;lt;&lt;/span&gt;&lt;span style=&quot;color: #f92672;&quot;&gt;table&amp;gt;&lt;/span&gt;&lt;span style=&quot;color: #f8f8f2;&quot;&gt;]&lt;/span&gt;&lt;/div&gt;&lt;/div&gt;&#xa;&#xa;" style="rounded=1;whiteSpace=wrap;html=1;" vertex="1" parent="WIyWlLk6GJQsqaUBKTNV-1">
          <mxGeometry x="80" y="554" width="360" height="60" as="geometry" />
        </mxCell>
        <mxCell id="cZ-cLYDdpeBu6bpKkWIv-39" value="" style="edgeStyle=orthogonalEdgeStyle;rounded=0;orthogonalLoop=1;jettySize=auto;html=1;" edge="1" parent="WIyWlLk6GJQsqaUBKTNV-1" source="cZ-cLYDdpeBu6bpKkWIv-29" target="cZ-cLYDdpeBu6bpKkWIv-38">
          <mxGeometry relative="1" as="geometry" />
        </mxCell>
        <mxCell id="cZ-cLYDdpeBu6bpKkWIv-29" value="&lt;div style=&quot;color: rgb(248, 248, 242); background-color: rgb(39, 40, 34); font-family: Consolas, &amp;quot;Courier New&amp;quot;, monospace; font-size: 16px; line-height: 22px; white-space: pre;&quot;&gt;J[pm.visualizer.set(template, {userMessage, response})]&lt;/div&gt;" style="whiteSpace=wrap;html=1;rounded=1;" vertex="1" parent="WIyWlLk6GJQsqaUBKTNV-1">
          <mxGeometry x="5.5" y="641" width="510" height="60" as="geometry" />
        </mxCell>
        <mxCell id="cZ-cLYDdpeBu6bpKkWIv-32" value="&lt;div style=&quot;color: rgb(248, 248, 242); background-color: rgb(39, 40, 34); font-family: Consolas, &amp;quot;Courier New&amp;quot;, monospace; font-size: 16px; line-height: 22px; white-space: pre;&quot;&gt;&lt;div style=&quot;line-height: 22px;&quot;&gt;Template Renderer&lt;/div&gt;&lt;/div&gt;" style="text;html=1;align=center;verticalAlign=middle;whiteSpace=wrap;rounded=0;" vertex="1" parent="WIyWlLk6GJQsqaUBKTNV-1">
          <mxGeometry x="-177" y="555" width="140" height="30" as="geometry" />
        </mxCell>
        <mxCell id="cZ-cLYDdpeBu6bpKkWIv-37" value="" style="edgeStyle=orthogonalEdgeStyle;rounded=0;orthogonalLoop=1;jettySize=auto;html=1;" edge="1" parent="WIyWlLk6GJQsqaUBKTNV-1" source="cZ-cLYDdpeBu6bpKkWIv-35" target="WIyWlLk6GJQsqaUBKTNV-3">
          <mxGeometry relative="1" as="geometry" />
        </mxCell>
        <mxCell id="cZ-cLYDdpeBu6bpKkWIv-35" value="Start" style="ellipse;whiteSpace=wrap;html=1;rounded=1;glass=0;strokeWidth=1;shadow=0;" vertex="1" parent="WIyWlLk6GJQsqaUBKTNV-1">
          <mxGeometry x="200" y="-40" width="80" height="80" as="geometry" />
        </mxCell>
        <mxCell id="cZ-cLYDdpeBu6bpKkWIv-41" value="" style="edgeStyle=orthogonalEdgeStyle;rounded=0;orthogonalLoop=1;jettySize=auto;html=1;" edge="1" parent="WIyWlLk6GJQsqaUBKTNV-1" source="cZ-cLYDdpeBu6bpKkWIv-38" target="cZ-cLYDdpeBu6bpKkWIv-40">
          <mxGeometry relative="1" as="geometry" />
        </mxCell>
        <mxCell id="cZ-cLYDdpeBu6bpKkWIv-38" value="&lt;div style=&quot;color: rgb(248, 248, 242); background-color: rgb(39, 40, 34); font-family: Consolas, &amp;quot;Courier New&amp;quot;, monospace; font-size: 16px; line-height: 22px; white-space: pre;&quot;&gt;K[Visualizer Tab: Rendered HTML &lt;span style=&quot;color: #a6e22e;&quot;&gt;tables&lt;/span&gt;]&lt;/div&gt;" style="whiteSpace=wrap;html=1;rounded=1;" vertex="1" parent="WIyWlLk6GJQsqaUBKTNV-1">
          <mxGeometry x="85.75" y="750" width="349.5" height="49" as="geometry" />
        </mxCell>
        <mxCell id="cZ-cLYDdpeBu6bpKkWIv-40" value="Stop" style="ellipse;whiteSpace=wrap;html=1;rounded=1;" vertex="1" parent="WIyWlLk6GJQsqaUBKTNV-1">
          <mxGeometry x="220.5" y="830" width="80" height="80" as="geometry" />
        </mxCell>
      </root>
    </mxGraphModel>
  </diagram>
</mxfile>
